<svg width="24" height="24" viewBox="0 0 24 24" fill="none" xmlns="http://www.w3.org/2000/svg">
    <g clip-path="url(#clip0_115_149)">
        <g clip-path="url(#clip1_115_149)">
            <g opacity="0.999985" clip-path="url(#clip2_115_149)">
                <mask id="mask0_115_149" style="mask-type:luminance" maskUnits="userSpaceOnUse"
                    x="0" y="0" width="24" height="24">
                    <path d="M24 0H0V24H24V0Z" fill="white" />
                </mask>
                <g mask="url(#mask0_115_149)">
                    <path
                        d="M23.5474 10.9307L13.0688 0.452601C12.4656 -0.150867 11.4869 -0.150867 10.8831 0.452601L8.70712 2.62854L11.4674 5.38881C12.1088 5.17208 12.8444 5.31747 13.3557 5.8288C13.8695 6.34339 14.0138 7.08523 13.7918 7.72873L16.452 10.389C17.0955 10.1673 17.8382 10.3107 18.3522 10.8256C19.0706 11.5437 19.0706 12.7076 18.3522 13.4262C17.6336 14.1449 16.4698 14.1449 15.7508 13.4262C15.2104 12.8853 15.0769 12.0917 15.3504 11.4259L12.8696 8.94513L12.8693 15.4736C13.0492 15.5625 13.2134 15.68 13.3557 15.8214C14.0741 16.5395 14.0741 17.7035 13.3557 18.4227C12.6371 19.1409 11.4727 19.1409 10.7551 18.4227C10.0367 17.7035 10.0367 16.5397 10.7551 15.8215C10.9272 15.6493 11.1319 15.5128 11.3571 15.4202V8.83084C11.1315 8.73878 10.9268 8.6023 10.7551 8.4295C10.2108 7.88595 10.0799 7.08729 10.3588 6.41894L7.63781 3.69766L0.452813 10.8822C-0.150938 11.4862 -0.150938 12.4651 0.452813 13.0686L10.9316 23.5469C11.5349 24.1504 12.5135 24.1504 13.1175 23.5469L23.5474 13.1173C24.1509 12.5135 24.1509 11.5341 23.5474 10.9307Z"
                        fill="#DE4C36" />
                </g>
            </g>
        </g>
    </g>
    <defs>
        <clipPath id="clip0_115_149">
            <rect width="24" height="24" fill="white" />
        </clipPath>
        <clipPath id="clip1_115_149">
            <rect width="24" height="24" fill="white" />
        </clipPath>
        <clipPath id="clip2_115_149">
            <rect width="24" height="24" fill="white" />
        </clipPath>
    </defs>
</svg>