<svg width="24" height="24" viewBox="0 0 24 24" fill="none" xmlns="http://www.w3.org/2000/svg">
    <path
        d="M22.0415 14.8951C21.95 14.4806 21.574 13.9971 20.8155 13.9971C20.6605 13.9971 20.491 14.0166 20.298 14.0566C19.944 14.1296 19.6425 14.1651 19.377 14.1771C21.4435 10.6571 22.785 5.76757 21.4565 4.07007C19.706 1.83357 17.3495 1.49957 16.101 1.49957L15.9835 1.50007C15.519 1.50757 15.037 1.56457 14.552 1.66957L12.7605 2.05657C12.5165 2.02607 12.268 2.00457 12.009 2.00007H11.994H11.986L11.91 1.99957C11.1135 1.99957 10.387 2.16857 9.7395 2.48607L9.114 2.23957C8.254 1.90057 6.96 1.49707 5.68 1.49707C5.608 1.49707 5.5365 1.49857 5.4645 1.50107C4.2035 1.54657 3.1205 2.02507 2.332 2.88457C1.348 3.95757 0.899999 5.52707 1.0015 7.55007C1.0065 7.65457 2.2305 18.0001 5.7 18.0001H5.7125L5.7445 17.9996C6.195 17.9886 6.6245 17.8076 7.026 17.4611C7.3325 17.6911 7.729 17.8271 8.0985 17.8811C8.3425 17.9386 8.7815 18.0201 9.3075 18.0201C9.9495 18.0201 10.5285 17.8886 11.0275 17.6511C11.027 18.0911 11.0245 18.6481 11.0195 19.3601L11.019 19.3976L11.0215 19.4351C11.07 20.1446 11.1925 20.7841 11.377 21.2856C11.9025 22.7151 12.81 23.5026 13.9325 23.5026C13.979 23.5026 14.0265 23.5011 14.0745 23.4981C14.9975 23.4411 15.933 22.9226 16.5765 22.1121C17.273 21.2346 17.434 20.3086 17.496 19.5991L17.5 19.5556V19.5116V17.4721L17.5515 17.4771L17.7695 17.4961L17.7905 17.4981L17.8115 17.4991C17.8735 17.5021 17.9375 17.5031 18.002 17.5031C18.7555 17.5031 19.683 17.3076 20.31 17.0161C20.9095 16.7381 22.2795 15.9741 22.0415 14.8951Z"
        fill="white" />
    <path
        d="M16.5 16.9999C16.5 16.8974 16.506 16.8119 16.509 16.7174C16.504 16.5919 16.5 16.4999 16.5 16.4999C16.5 16.4999 16.506 16.4954 16.516 16.4889C16.5905 15.1524 16.959 14.6374 17.3535 14.3439C17.2985 14.2674 17.235 14.1849 17.1755 14.1064C17.009 13.8879 16.8015 13.6169 16.5795 13.2694L16.5385 13.1904C16.505 13.1084 16.424 12.9669 16.321 12.7809C15.7295 11.7109 14.4985 9.48492 15.341 8.07892C15.71 7.46291 16.402 7.10791 17.4015 7.02041C16.993 5.85891 15.4625 3.05741 11.9925 2.99991C11.9915 2.99991 11.9905 2.99991 11.9895 2.99991C8.969 2.95091 7.9765 5.69591 7.6535 7.33591C8.0985 7.14741 8.6065 7.03291 9.0715 7.03291C9.0785 7.03291 9.086 7.03291 9.093 7.03291C10.238 7.04141 11.0255 7.65241 11.2545 8.70991C11.422 9.48591 11.5025 10.1649 11.5005 10.7864C11.4955 12.1459 11.2215 12.8609 10.9795 13.4919L10.9025 13.6959C10.8405 13.8629 10.775 14.0184 10.713 14.1644C10.65 14.3134 10.5945 14.4459 10.554 14.5654C10.796 14.6204 10.986 14.6979 11.1165 14.7554L11.192 14.7884C11.2155 14.7984 11.239 14.8099 11.2605 14.8229C11.6845 15.0809 11.9485 15.4774 12.005 15.9394C12.0355 16.1884 12.0305 17.8859 12.02 19.3669C12.0635 20.0094 12.1725 20.5489 12.3165 20.9399C12.521 21.4969 13.032 22.5604 14.0135 22.4994C14.6985 22.4569 15.357 22.0399 15.794 21.4899C16.263 20.8994 16.436 20.2464 16.501 19.5109V16.9999H16.5Z"
        fill="#0277BD" />
    <path
        d="M7.55699 14.4586C6.75049 13.6171 6.35749 12.4851 6.50499 11.4306C6.64749 10.4131 6.56699 9.41705 6.52349 8.88155C6.50899 8.70305 6.49949 8.57005 6.49999 8.49655C6.49999 8.49255 6.50099 8.48905 6.50149 8.48505C6.50149 8.48305 6.50049 8.48155 6.50049 8.47955C6.56099 6.96905 7.14349 4.58605 8.74699 3.16955C7.96599 2.86205 6.69399 2.45655 5.49999 2.50005C3.62899 2.56805 1.81799 3.86205 1.99999 7.50005C2.06849 8.86505 3.61099 17.0516 5.71999 17.0001C6.02149 16.9926 6.33449 16.7991 6.65599 16.4121C7.16449 15.8006 7.65849 15.2461 8.00999 14.8601C7.85249 14.7406 7.70049 14.6086 7.55699 14.4586ZM18.5115 7.36555C18.519 7.44255 18.5125 7.50855 18.5005 7.56955C18.516 8.02955 18.4665 8.47605 18.416 8.90805C18.379 9.22605 18.341 9.55455 18.3305 9.88405C18.32 10.2066 18.3655 10.5251 18.4135 10.8621C18.526 11.6511 18.643 12.5416 18.031 13.5806C18.1435 13.7286 18.2425 13.8661 18.3215 13.9991C20.6265 10.2616 21.5555 5.81855 20.669 4.68605C19.3275 2.97205 17.4705 2.47605 15.9995 2.50005C15.539 2.50755 15.1205 2.56955 14.763 2.64705C17.301 3.87705 18.4315 6.51305 18.5115 7.36555ZM20.5 15.0356C19.1675 15.3106 18.5265 15.1641 18.2155 14.9726C18.1655 15.0086 18.1155 15.0391 18.069 15.0676C17.883 15.1801 17.5885 15.3591 17.5165 16.4586C17.558 16.4666 17.5945 16.4711 17.6395 16.4806L17.857 16.5001C18.517 16.5301 19.3815 16.3451 19.8885 16.1096C20.981 15.6026 21.5765 14.8136 20.5 15.0356ZM11.0115 16.0596C10.993 15.9106 10.9125 15.7901 10.7655 15.6936L10.7115 15.6701C10.531 15.5906 10.3265 15.5001 9.99999 15.5001H9.99799C9.93449 15.5051 9.87149 15.5096 9.80799 15.5096C9.78199 15.5096 9.75649 15.5061 9.73049 15.5051C9.49349 15.6876 9.15649 15.8286 8.32249 16.0001C6.83249 16.3796 7.71199 16.8276 8.28349 16.8971C8.83649 17.0356 10.151 17.2041 11.024 16.4926C11.0215 16.2686 11.0175 16.1146 11.0115 16.0596Z"
        fill="#0277BD" />
    <path
        d="M10.3405 9.25058C10.1945 9.40158 9.96399 9.53358 9.70949 9.49258C9.29549 9.42558 8.97799 8.92608 9.00099 8.73858C9.02299 8.55158 9.37649 8.45408 9.78999 8.52108C9.93349 8.54458 10.064 8.58508 10.174 8.63508C10.014 8.29108 9.72449 8.09258 9.28299 8.04408C8.50049 7.95708 7.66999 8.36608 7.50299 8.59258C7.50649 8.64758 7.51299 8.71808 7.51949 8.80108C7.56599 9.37458 7.65199 10.4431 7.49449 11.5696C7.39049 12.3121 7.69099 13.1541 8.27799 13.7671C8.65649 14.1621 9.09849 14.4121 9.53449 14.4861C9.58999 14.2471 9.68899 14.0141 9.79099 13.7736C9.84749 13.6411 9.90749 13.5001 9.96399 13.3476L10.045 13.1341C10.2665 12.5566 10.495 11.9591 10.4995 10.7826C10.5015 10.3301 10.446 9.81358 10.3405 9.25058ZM17.4235 11.0036C17.3715 10.6391 17.318 10.2616 17.331 9.85208C17.3425 9.48108 17.3835 9.13108 17.423 8.79258C17.454 8.52608 17.478 8.27008 17.492 8.01758C16.8475 8.07108 16.4195 8.25708 16.2165 8.57158C16.3005 8.54308 16.3955 8.52058 16.5005 8.50708C16.9465 8.44908 17.272 8.57758 17.3095 8.82558C17.337 9.00708 17.183 9.17808 17.1155 9.24358C16.977 9.37808 16.8025 9.46458 16.625 9.48758C16.593 9.49158 16.5605 9.49358 16.529 9.49358C16.3525 9.49358 16.184 9.43308 16.0545 9.34358C16.1105 10.3301 16.838 11.6496 17.196 12.2971C17.2725 12.4356 17.3315 12.5461 17.3805 12.6411C17.577 12.0816 17.5045 11.5716 17.4235 11.0036Z"
        fill="#0277BD" />
</svg>