<?xml version="1.0" standalone="no"?>
<!DOCTYPE svg PUBLIC "-//W3C//DTD SVG 20010904//EN"
 "http://www.w3.org/TR/2001/REC-SVG-20010904/DTD/svg10.dtd">
<svg version="1.0" xmlns="http://www.w3.org/2000/svg"
 width="750.000000pt" height="1024.000000pt" viewBox="0 0 750.000000 1024.000000"
 preserveAspectRatio="xMidYMid meet">

<g transform="translate(0.000000,1024.000000) scale(0.100000,-0.100000)"
fill="#000000" stroke="none">
<path d="M7175 10210 c-10 -11 -15 -23 -12 -27 7 -6 36 25 37 40 0 11 -6 8
-25 -13z"/>
<path d="M7171 9812 c-14 -26 -7 -42 10 -25 6 6 9 19 7 29 -3 17 -5 17 -17 -4z"/>
<path d="M7467 9696 c-31 -49 -35 -65 -10 -45 16 14 47 78 41 85 -2 1 -16 -16
-31 -40z"/>
<path d="M6588 9678 c-24 -36 -39 -68 -33 -68 8 0 58 80 53 86 -3 2 -12 -6
-20 -18z"/>
<path d="M7180 9560 c0 -5 7 -10 15 -10 8 0 15 5 15 10 0 6 -7 10 -15 10 -8 0
-15 -4 -15 -10z"/>
<path d="M6247 9453 c-77 -80 -258 -298 -361 -433 -136 -180 -266 -411 -251
-447 6 -15 13 -11 49 29 23 25 74 93 112 149 38 57 90 127 116 156 25 28 62
75 82 105 19 29 45 65 56 81 12 15 17 27 11 27 -14 0 12 53 48 97 41 49 110
144 142 193 15 25 38 57 51 72 45 56 8 37 -55 -29z"/>
<path d="M7080 9500 c-6 -12 -9 -24 -7 -27 3 -2 11 5 17 17 6 12 9 24 7 27 -3
2 -11 -5 -17 -17z"/>
<path d="M6415 9489 c-10 -15 3 -25 16 -12 7 7 7 13 1 17 -6 3 -14 1 -17 -5z"/>
<path d="M7261 9444 c0 -11 3 -14 6 -6 3 7 2 16 -1 19 -3 4 -6 -2 -5 -13z"/>
<path d="M6315 9383 l-18 -28 27 24 c28 26 31 31 17 31 -5 0 -17 -12 -26 -27z"/>
<path d="M7290 9363 c0 -22 -5 -44 -11 -50 -6 -6 -8 -17 -4 -24 6 -9 11 -7 22
6 15 22 18 91 3 100 -6 4 -10 -9 -10 -32z"/>
<path d="M6283 9286 c-21 -19 -33 -36 -28 -36 16 0 81 57 73 65 -3 4 -24 -9
-45 -29z"/>
<path d="M7176 9265 c-22 -34 -21 -52 3 -31 20 18 34 56 21 56 -4 0 -15 -11
-24 -25z"/>
<path d="M6202 9128 c-62 -62 -156 -156 -210 -209 -54 -52 -164 -172 -245
-266 -80 -95 -154 -177 -164 -185 -10 -7 -26 -29 -36 -49 -30 -59 -204 -286
-253 -332 -44 -40 -126 -124 -241 -247 -28 -30 -54 -52 -57 -49 -3 3 12 30 34
60 41 57 51 81 24 58 -24 -20 -74 -111 -74 -135 0 -12 -7 -24 -15 -28 -8 -3
-15 -14 -15 -24 0 -30 -67 -134 -115 -179 -25 -23 -45 -48 -45 -56 0 -8 -13
-17 -30 -20 -16 -4 -30 -12 -30 -20 0 -7 -24 -40 -52 -74 -79 -92 -266 -309
-322 -372 -71 -82 -92 -108 -150 -191 -29 -41 -82 -115 -117 -165 -36 -49 -85
-121 -110 -160 -24 -38 -47 -71 -51 -73 -4 -2 -8 -16 -8 -31 0 -25 -26 -61
-43 -61 -12 0 -7 23 8 40 8 9 18 31 21 49 11 52 -17 35 -37 -23 -10 -27 -42
-74 -76 -112 -32 -36 -73 -83 -90 -106 -25 -30 -34 -37 -39 -25 -5 15 10 50
42 95 9 12 12 22 7 22 -5 0 -38 -39 -73 -87 -36 -48 -110 -137 -165 -198 -55
-60 -140 -156 -189 -212 -48 -57 -92 -103 -97 -103 -14 0 -11 28 7 61 27 53 8
43 -37 -18 -24 -32 -51 -67 -61 -79 l-19 -21 -67 66 c-37 37 -180 169 -319
294 -138 124 -339 309 -445 409 -107 101 -239 223 -294 273 -54 49 -164 153
-244 230 -214 207 -490 422 -681 529 -26 14 -95 62 -155 106 -108 82 -171 120
-197 120 -8 0 -35 18 -61 41 -25 22 -46 39 -46 37 0 -2 11 -19 25 -38 14 -19
25 -41 25 -49 -1 -13 -3 -13 -14 2 -10 13 -15 15 -19 5 -2 -7 -12 3 -22 25
-11 20 -22 37 -27 37 -11 0 -10 -17 2 -41 8 -15 7 -19 -4 -19 -8 0 -18 5 -21
10 -3 6 -17 10 -29 10 -15 0 -26 7 -29 20 -4 17 -37 30 -37 15 0 -14 35 -73
59 -99 l26 -29 -48 28 c-51 29 -73 28 -86 -7 -6 -16 -4 -28 7 -40 32 -37 -10
-16 -81 41 -72 57 -117 107 -117 130 0 6 12 11 28 11 46 0 57 13 42 49 -7 17
-19 31 -26 31 -18 0 -18 -10 2 -38 24 -35 -2 -27 -60 17 -69 52 -106 75 -112
69 -2 -3 20 -22 51 -43 59 -41 61 -45 43 -63 -16 -16 -48 -15 -48 2 0 13 -63
76 -76 76 -3 0 4 -15 15 -34 26 -42 26 -49 -1 -41 -17 6 -20 4 -15 -9 4 -9 2
-25 -5 -35 -14 -23 -4 -51 22 -58 24 -6 26 -20 4 -25 -14 -2 -10 -12 20 -51
42 -55 45 -64 14 -43 -32 23 -38 20 -38 -19 0 -19 -5 -35 -10 -35 -7 0 -7 -7
0 -21 7 -11 9 -27 6 -34 -3 -8 4 -25 15 -39 l19 -25 -22 -3 c-25 -3 -33 -38
-10 -45 6 -3 12 3 12 12 0 9 5 13 10 10 18 -11 10 -25 -25 -46 -19 -12 -35
-29 -35 -38 0 -52 123 -185 723 -781 397 -394 629 -618 647 -622 36 -10 120
-100 151 -162 37 -75 282 -336 357 -380 31 -18 6 20 -63 96 -41 45 -72 84 -70
86 2 3 147 -134 321 -304 308 -301 429 -437 485 -546 l19 -38 -49 -49 c-94
-94 -196 -257 -227 -361 -9 -29 -32 -65 -65 -100 -49 -54 -50 -54 -28 -15 l23
40 -23 -20 c-13 -11 -56 -70 -96 -132 -41 -61 -82 -116 -92 -121 -10 -6 -15
-14 -11 -18 12 -11 -11 -44 -38 -54 -13 -5 -24 -14 -24 -20 0 -6 5 -8 10 -5 5
3 10 2 10 -3 0 -6 -11 -13 -24 -16 -31 -8 -108 -122 -205 -304 -77 -145 -107
-191 -193 -300 -122 -154 -288 -423 -288 -468 0 -6 -17 -29 -38 -51 -49 -51
-208 -289 -246 -368 -16 -33 -35 -71 -42 -85 -6 -14 -21 -29 -33 -35 -12 -5
-21 -17 -21 -25 0 -9 -14 -32 -30 -52 -17 -21 -38 -60 -46 -87 -10 -34 -31
-68 -68 -108 -135 -146 -175 -191 -208 -238 -20 -28 -46 -59 -57 -69 -28 -26
-26 -39 4 -34 35 7 31 -10 -16 -67 -52 -63 -60 -84 -69 -167 -6 -62 -13 -76
-74 -168 -38 -55 -74 -100 -82 -100 -8 0 -17 -7 -20 -15 -4 -8 -14 -15 -23
-15 -10 0 -26 -7 -37 -15 -18 -13 -17 -14 19 -15 42 0 43 -2 21 -35 -8 -13
-22 -53 -29 -89 -8 -36 -39 -119 -69 -184 -31 -65 -56 -128 -56 -139 0 -11 -7
-26 -15 -33 -8 -7 -15 -17 -15 -23 0 -6 13 2 30 18 28 27 30 28 30 7 0 -11 -5
-33 -12 -47 -11 -24 -8 -29 25 -62 29 -30 38 -34 51 -24 12 10 14 9 9 -7 -2
-11 0 -23 6 -26 6 -4 13 4 16 19 3 14 7 36 10 50 3 14 12 25 19 25 12 0 12 -7
5 -36 -6 -19 -9 -47 -7 -62 l4 -27 19 32 c11 18 24 33 29 33 9 0 3 -54 -10
-98 -6 -21 -5 -22 21 -12 35 13 61 5 68 -20 3 -13 11 -18 21 -14 12 4 16 0 16
-15 0 -14 9 -25 25 -31 14 -5 25 -16 24 -22 -4 -29 2 -38 26 -38 13 0 29 8 34
18 8 13 13 14 19 4 7 -10 13 -8 27 8 10 11 23 20 30 20 6 0 22 12 36 26 19 22
20 25 5 17 -14 -8 -25 -8 -38 0 -15 10 -24 5 -56 -26 -21 -20 -41 -37 -44 -37
-3 0 -8 13 -10 30 -3 22 -1 30 11 30 19 0 79 41 86 58 9 25 -23 23 -49 -3 -20
-20 -33 -25 -51 -21 -20 5 -27 1 -40 -25 -33 -62 -26 -18 9 59 20 43 37 90 38
103 3 22 0 24 -39 23 -37 -1 -43 2 -43 20 0 12 4 28 10 36 7 12 12 11 30 -5
28 -25 73 -11 78 24 2 14 10 35 18 47 11 17 12 23 3 26 -7 2 -9 10 -5 16 9 15
53 16 62 0 4 -6 3 -8 -3 -5 -6 4 -12 -15 -16 -47 -4 -42 -1 -63 15 -95 19 -40
49 -54 63 -31 3 6 15 10 25 10 11 0 34 16 53 35 35 36 61 44 70 22 6 -17 -16
-136 -31 -164 -7 -12 -21 -24 -31 -28 -11 -3 -22 -12 -25 -20 -3 -8 -10 -15
-17 -15 -6 0 -8 7 -5 16 3 9 2 12 -5 8 -6 -3 -8 -17 -5 -30 8 -30 -43 -90 -84
-99 -31 -7 -41 -25 -15 -25 30 0 72 29 109 75 87 105 122 97 66 -15 -42 -83
-52 -122 -26 -101 8 7 46 58 85 115 81 117 109 146 154 161 18 5 33 18 35 28
3 15 0 18 -16 13 -16 -6 -20 -1 -25 26 -2 19 2 46 10 63 24 46 98 147 127 172
14 13 26 29 26 37 0 8 11 27 24 43 13 15 25 37 27 48 3 14 14 21 39 25 33 5
38 11 80 96 25 51 57 106 72 124 16 17 28 35 28 40 0 5 21 38 48 73 26 36 70
100 97 143 98 152 111 171 176 260 83 113 317 452 346 501 23 38 31 93 14 93
-4 0 -23 -28 -41 -62 -38 -71 -228 -357 -315 -473 -33 -44 -63 -88 -67 -98
-11 -25 -82 -128 -110 -157 -12 -13 -31 -41 -40 -62 -20 -44 -33 -50 -23 -11
6 24 5 25 -10 13 -11 -9 -15 -23 -12 -39 6 -28 -5 -55 -36 -88 -18 -20 -21
-21 -32 -6 -10 14 -15 12 -37 -18 -31 -42 -51 -79 -42 -79 4 0 23 12 43 27
l36 28 -19 -30 c-10 -17 -27 -39 -37 -51 -11 -11 -19 -28 -19 -36 0 -25 -49
-58 -86 -58 -19 0 -34 5 -34 10 0 17 47 105 73 136 14 16 27 48 30 73 3 24 11
47 18 51 7 5 9 18 6 32 -5 19 0 30 18 46 14 12 25 27 25 32 0 6 16 34 35 63
19 28 35 55 35 59 0 19 -18 3 -60 -52 -25 -33 -49 -59 -53 -60 -23 -1 53 98
188 242 183 197 282 310 326 374 18 27 81 115 140 196 60 81 199 283 310 450
207 311 704 1036 814 1188 34 47 79 112 100 145 53 83 126 175 139 175 6 0 56
-41 110 -91 124 -113 148 -126 194 -109 32 11 36 10 56 -11 12 -13 17 -21 12
-17 -20 16 -28 7 -11 -12 10 -11 22 -17 26 -14 5 3 9 0 9 -6 0 -6 -7 -13 -15
-16 -11 -5 28 -51 144 -169 87 -89 185 -198 217 -241 94 -129 244 -280 396
-400 49 -38 57 -42 43 -20 -25 37 -13 42 25 9 28 -23 31 -24 22 -6 -18 32 -64
66 -72 52 -12 -18 -48 11 -64 52 -8 20 -22 39 -30 42 -9 4 -16 16 -16 27 0 22
7 25 30 10 11 -7 17 -5 21 8 6 16 7 16 13 0 3 -10 9 -26 12 -35 4 -12 8 -14
11 -5 8 22 20 13 48 -34 32 -55 93 -124 109 -124 6 0 -4 14 -21 31 -32 29 -39
39 -27 39 14 0 138 -129 154 -160 17 -33 40 -58 132 -143 20 -19 39 -46 42
-60 3 -15 8 -38 11 -51 3 -16 29 -41 72 -72 38 -26 93 -69 124 -96 31 -26 64
-48 72 -48 8 0 48 -27 88 -60 40 -32 75 -57 78 -54 3 2 -48 57 -112 122 -64
65 -117 121 -117 125 0 4 32 -15 72 -43 39 -28 79 -48 87 -46 9 3 39 -8 67
-22 65 -34 179 -125 164 -130 -6 -2 -17 1 -23 7 -6 6 -15 11 -21 11 -30 0 144
-139 294 -234 25 -16 55 -41 68 -57 13 -16 30 -29 38 -29 8 0 14 -5 14 -11 0
-6 9 -24 21 -41 27 -37 18 -47 -17 -19 -15 11 -35 21 -45 21 -11 0 -19 7 -19
15 0 8 -6 15 -14 15 -8 0 -22 8 -32 17 -9 10 -38 32 -63 49 -25 17 -45 36 -43
42 1 7 -8 12 -21 12 -13 0 -52 22 -88 50 -35 27 -68 50 -73 50 -18 0 29 -42
171 -152 78 -61 141 -113 139 -116 -3 -2 -25 10 -50 28 -42 29 -66 29 -31 0
27 -23 9 -21 -31 2 -21 12 -34 17 -30 10 13 -22 96 -73 124 -76 15 -2 32 -4
37 -5 6 -1 25 -10 44 -22 27 -16 31 -23 20 -30 -19 -12 -3 -37 44 -68 35 -23
40 -41 12 -41 -14 0 -116 54 -266 142 -44 26 -79 41 -76 35 10 -34 291 -207
335 -207 11 0 22 -6 25 -13 7 -19 132 -78 178 -84 22 -3 80 0 129 6 92 13 130
9 130 -13 0 -15 51 -26 118 -26 51 0 56 15 8 24 -37 7 -85 40 -75 51 4 3 48
-10 99 -29 51 -20 94 -36 97 -36 14 0 -14 22 -65 50 -85 48 -254 161 -249 167
3 2 46 -17 97 -42 50 -25 97 -44 103 -42 12 4 -3 14 -86 61 -27 15 -57 42 -67
59 -17 28 -18 33 -5 47 8 9 12 20 8 23 -13 13 38 7 67 -8 17 -9 42 -20 57 -25
27 -10 26 -9 -8 22 -20 18 -55 49 -79 69 l-44 36 55 -7 c30 -3 71 -16 92 -29
69 -43 50 -13 -22 34 -62 41 -276 243 -267 252 1 2 24 -6 50 -18 32 -14 46
-25 42 -35 -3 -8 -1 -14 5 -14 5 0 32 -20 58 -45 52 -49 61 -53 61 -30 0 8 -6
15 -13 15 -13 0 -46 32 -61 57 -5 8 1 9 24 0 34 -13 49 -4 31 17 -7 8 -10 20
-6 26 9 15 35 12 35 -5 0 -8 6 -15 14 -15 29 0 26 21 -7 52 -60 58 -120 128
-114 134 10 10 105 -55 137 -94 l29 -36 -6 40 c-8 53 -25 85 -78 144 -45 50
-63 89 -50 109 9 15 38 14 61 -4 36 -27 35 -15 -5 38 -21 28 -46 66 -55 84 -8
17 -41 57 -72 88 -31 31 -54 59 -50 62 7 8 88 -58 148 -122 40 -41 50 -47 58
-35 17 25 11 57 -15 88 -14 17 -25 35 -25 41 0 6 -16 29 -36 51 -20 22 -34 40
-31 40 3 0 34 -25 69 -55 35 -31 74 -58 88 -61 24 -5 34 -10 92 -43 15 -9 30
-12 34 -8 23 23 -85 125 -426 402 -241 195 -400 331 -550 466 -63 58 -182 160
-265 229 -82 68 -253 212 -380 320 -126 108 -348 292 -492 409 -289 233 -327
271 -273 271 23 0 26 10 8 28 -18 18 -35 15 -41 -8 -5 -21 -41 -28 -52 -10 -3
5 10 30 30 56 38 50 40 63 5 44 -42 -23 -46 4 -11 72 22 41 27 57 15 48 -14
-12 -18 -13 -22 -2 -3 10 -17 2 -43 -24 -22 -21 -39 -34 -39 -29 0 17 95 208
138 277 23 37 53 90 67 119 15 28 115 169 224 313 255 339 247 326 231 336
-10 6 -4 20 26 55 21 25 57 72 79 104 22 31 59 79 83 106 23 26 62 78 86 114
24 37 51 72 60 80 9 7 16 22 16 32 0 10 8 23 18 29 12 8 14 13 4 17 -16 6 3
33 24 33 18 0 19 85 2 96 -6 4 -22 -5 -36 -22 -78 -91 -103 -116 -108 -111 -9
9 16 45 65 96 23 23 41 49 41 57 0 8 5 14 10 14 6 0 20 20 32 45 12 25 26 45
30 45 5 0 12 9 16 19 9 24 220 261 232 261 5 0 7 -14 3 -32 -6 -30 4 -21 97
77 135 143 298 301 333 323 15 9 27 21 27 27 0 18 52 62 90 79 19 8 53 33 75
56 46 48 95 85 95 73 0 -5 -25 -38 -55 -73 -30 -36 -55 -69 -55 -75 0 -5 43
33 96 85 70 70 92 86 80 63 -22 -44 -5 -42 33 5 17 20 37 45 46 55 19 22 19
25 -1 29 -12 2 14 37 92 123 275 304 527 603 555 657 11 21 28 44 39 50 11 7
20 20 20 29 0 9 12 32 28 51 15 20 34 46 42 58 8 13 25 35 38 51 28 34 76 138
68 146 -4 4 -22 -8 -40 -26 -30 -29 -35 -31 -38 -15 -3 14 -11 5 -30 -32 -15
-27 -34 -56 -42 -63 -9 -8 -16 -18 -16 -24 0 -6 -19 -35 -42 -66 -30 -39 -44
-51 -46 -39 -4 19 20 69 55 116 14 18 22 36 19 39 -3 3 13 26 35 51 22 25 42
57 45 71 3 14 12 39 21 55 13 23 13 30 2 36 -10 7 -10 20 4 69 21 74 21 97 2
104 -9 4 -26 -13 -50 -54 -39 -63 -83 -100 -72 -60 9 36 -8 23 -31 -24 -27
-56 -28 -63 -2 -40 36 33 24 -8 -15 -49 -19 -21 -35 -42 -35 -47 0 -5 -4 -9
-10 -9 -5 0 -10 12 -10 27 l0 27 -29 -34 c-28 -32 -29 -33 -24 -10 5 24 4 24
-16 -5 -11 -16 -26 -42 -32 -58 -7 -17 -22 -29 -38 -33 -14 -3 -36 -9 -48 -14
-28 -12 -31 6 -5 27 15 12 14 13 -13 7 -16 -4 -34 -14 -39 -22 -5 -9 -26 -34
-46 -56 -35 -39 -62 -81 -76 -118 -3 -10 -13 -18 -20 -18 -8 0 -19 -11 -25
-23 -6 -13 -24 -32 -41 -41 -16 -10 -45 -32 -64 -48 -36 -32 -43 -25 -19 21 8
16 28 34 46 40 25 9 29 14 20 25 -9 11 -4 21 24 49 19 19 35 42 35 51 0 10 9
16 23 17 12 0 16 3 10 6 -20 7 -15 23 13 46 24 18 26 25 20 68 -6 41 -2 59 24
115 17 37 28 70 25 72 -3 3 -28 -16 -55 -43 -53 -52 -76 -54 -46 -4 30 51 12
42 -23 -12 -18 -28 -46 -58 -62 -68 -16 -10 -43 -37 -61 -62 -17 -24 -38 -50
-45 -57 -7 -7 -13 -25 -13 -40 0 -19 -9 -32 -30 -44 -36 -21 -41 -5 -10 35 11
14 20 29 20 34 0 6 9 21 20 34 130 154 181 246 95 170 -61 -53 -79 -36 -35 33
34 54 37 68 13 59 -16 -6 -16 -4 1 15 11 12 28 22 38 22 16 0 17 2 6 15 -11
12 -17 10 -40 -15 -16 -17 -28 -40 -28 -51 0 -12 -11 -34 -25 -51 -14 -16 -25
-39 -25 -50 0 -13 -6 -18 -17 -16 -13 2 -18 13 -18 37 0 33 8 42 50 56 l20 7
-20 8 c-15 6 -28 0 -52 -23 -18 -17 -35 -28 -38 -25 -7 7 60 139 84 165 12 12
21 29 21 38 0 9 6 18 14 21 12 5 31 34 22 34 -1 0 -53 -51 -114 -112z m-61
-196 c-12 -22 -51 -58 -51 -47 0 9 50 65 57 65 2 0 -1 -8 -6 -18z m69 -141
c-10 -21 -30 -37 -30 -26 0 14 21 45 31 45 6 0 6 -7 -1 -19z m-44 -158 c-10
-10 -19 5 -10 18 6 11 8 11 12 0 2 -7 1 -15 -2 -18z m374 -16 c0 -19 -27 -53
-36 -45 -9 10 12 58 26 58 5 0 10 -6 10 -13z m-690 -7 c0 -12 -72 -90 -82 -90
-17 0 -6 22 28 60 36 40 54 50 54 30z m1020 -11 c0 -6 -4 -7 -10 -4 -5 3 -10
11 -10 16 0 6 5 7 10 4 6 -3 10 -11 10 -16z m-978 -99 c-4 -31 -52 -80 -78
-80 -20 0 -18 8 11 42 14 16 25 36 25 43 0 8 10 16 23 18 12 2 22 5 23 6 0 0
-1 -13 -4 -29z m-112 -9 c0 -14 -42 -41 -63 -41 -25 0 -17 22 14 37 29 15 49
16 49 4z m-70 -81 c0 -12 -28 -25 -36 -17 -9 9 6 27 22 27 8 0 14 -5 14 -10z
m730 6 c0 -2 -8 -10 -17 -17 -16 -13 -17 -12 -4 4 13 16 21 21 21 13z m-269
-99 c-8 -8 -11 -7 -11 4 0 9 3 19 7 23 4 4 9 2 11 -4 3 -7 -1 -17 -7 -23z m49
-6 c-22 -32 -30 -38 -30 -22 0 12 41 63 47 57 3 -3 -5 -19 -17 -35z m-500
-191 c0 -24 -6 -32 -32 -43 -42 -18 -70 -49 -74 -83 -2 -24 -43 -79 -51 -70
-14 14 125 226 148 226 5 0 9 -13 9 -30z m-292 -12 c-2 -15 -11 -24 -25 -26
-27 -4 -29 5 -6 30 22 24 35 23 31 -4z m432 -77 c-16 -31 -12 -40 16 -38 33 2
44 -22 15 -30 -12 -3 -37 -29 -56 -58 -18 -29 -46 -61 -61 -71 -32 -22 -163
-151 -210 -207 -18 -21 -35 -54 -39 -74 -10 -57 -62 -148 -106 -188 -85 -76
-80 -18 7 75 44 48 84 123 84 158 0 16 7 35 15 42 8 7 15 17 15 22 0 6 19 30
43 53 47 48 95 125 78 125 -14 0 -14 37 -1 45 6 4 22 24 35 45 27 43 88 94
106 88 6 -2 -14 -35 -45 -72 -31 -38 -54 -71 -51 -74 9 -9 54 39 102 110 26
37 50 68 55 68 5 0 4 -9 -2 -19z m-530 -36 c0 -14 -8 -33 -17 -43 -10 -10 -23
-27 -28 -37 -6 -10 -14 -16 -19 -14 -5 2 -13 -11 -20 -29 -14 -42 -99 -158
-104 -142 -2 6 5 22 17 34 27 28 27 39 0 31 -20 -7 -20 -6 -3 27 9 18 34 52
55 75 22 24 39 47 39 52 0 12 59 71 71 71 5 0 9 -11 9 -25z m999 -102 c-7 -10
-43 -52 -79 -93 -37 -41 -75 -87 -84 -102 -19 -30 -42 -38 -32 -13 8 23 -10
18 -38 -10 -30 -30 -62 -35 -47 -7 5 9 18 25 29 36 12 10 18 24 16 31 -3 7 10
23 28 36 18 13 55 42 82 66 26 24 56 43 65 43 10 0 26 7 37 15 26 20 39 19 23
-2z m-846 -84 c-10 -16 -29 -40 -42 -52 l-24 -22 18 30 c19 31 56 75 62 75 2
0 -4 -14 -14 -31z m430 -9 c-20 -34 -51 -44 -33 -10 8 16 36 38 48 40 2 0 -5
-13 -15 -30z m-622 -7 c-36 -50 -129 -135 -142 -131 -9 3 0 18 26 46 22 22 54
57 71 76 17 20 39 36 48 36 16 0 15 -3 -3 -27z m25 -68 c-9 -14 -24 -25 -32
-25 -17 0 -15 5 25 53 22 26 27 2 7 -28z m719 26 c-3 -6 -14 -11 -23 -11 -13
0 -13 2 4 14 21 15 30 14 19 -3z m-525 -36 c-13 -14 -26 -23 -28 -20 -3 3 5
16 18 30 13 14 26 23 28 20 3 -3 -5 -16 -18 -30z m350 32 c0 -2 -10 -12 -22
-23 l-23 -19 19 23 c18 21 26 27 26 19z m-460 -35 c0 -7 -89 -111 -265 -309
-44 -49 -109 -122 -144 -162 -71 -81 -104 -106 -126 -97 -14 5 -14 9 0 37 27
50 6 48 -39 -5 -22 -28 -56 -66 -75 -85 -29 -32 -30 -32 -12 -6 11 17 41 56
66 88 46 60 60 94 27 64 -24 -22 -52 -22 -52 1 1 33 24 50 65 48 30 -1 40 3
43 17 2 12 -3 17 -17 17 -26 0 -26 4 1 49 19 31 23 33 26 16 6 -29 22 -45 44
-45 17 0 18 -2 8 -15 -7 -9 -19 -14 -27 -11 -14 6 -18 -30 -5 -51 10 -15 92
22 92 41 0 7 10 18 23 26 23 13 266 277 294 320 35 53 73 86 73 62z m360 -71
c-5 -11 -15 -23 -20 -26 -14 -9 -12 19 2 33 19 19 30 14 18 -7z m180 -6 c-7
-8 -17 -15 -23 -15 -5 0 -2 9 8 20 21 23 35 19 15 -5z m88 -4 c3 -8 -1 -12 -9
-9 -7 2 -15 10 -17 17 -3 8 1 12 9 9 7 -2 15 -10 17 -17z m-644 -57 c-54 -69
-64 -79 -64 -71 0 12 83 117 88 112 3 -3 -8 -21 -24 -41z m600 11 c-4 -8 -11
-15 -16 -15 -6 0 -5 6 2 15 7 8 14 15 16 15 2 0 1 -7 -2 -15z m-5294 -26 c0
-6 -7 -6 -20 1 -11 6 -20 15 -20 21 0 6 7 6 20 -1 11 -6 20 -15 20 -21z m4794
7 c-3 -9 -12 -16 -20 -16 -18 0 -18 5 2 25 19 19 27 15 18 -9z m201 -38 c-34
-40 -104 -102 -110 -96 -2 2 -1 17 3 32 6 21 18 32 46 41 22 8 48 23 60 34 31
31 31 25 1 -11z m-4931 -33 c11 -8 16 -18 12 -22 -3 -4 -16 3 -28 15 -25 25
-13 29 16 7z m-346 -53 c3 -9 -3 -13 -19 -10 -12 1 -24 9 -27 16 -3 9 3 13 19
10 12 -1 24 -9 27 -16z m5142 9 c0 -6 -5 -13 -11 -17 -6 -3 -9 -18 -6 -33 4
-19 -3 -37 -30 -68 -19 -24 -39 -43 -44 -43 -19 0 -8 33 21 67 17 18 30 41 30
49 0 21 19 54 30 54 6 0 10 -4 10 -9z m-5410 -20 c11 -22 0 -34 -24 -25 -16 6
-21 25 -9 37 11 12 22 8 33 -12z m135 -65 c70 -47 113 -88 97 -94 -11 -3 -54
20 -129 71 -18 12 -32 30 -33 40 0 24 8 22 65 -17z m355 4 c18 -14 21 -20 9
-20 -9 0 -24 9 -34 20 -23 26 -8 26 25 0z m4150 -26 c-18 -21 -24 -10 -9 18 8
14 14 18 17 10 2 -7 -2 -19 -8 -28z m876 -40 c-10 -14 -20 -23 -23 -21 -2 3 3
17 13 31 9 15 19 24 22 22 2 -3 -3 -17 -12 -32z m-5026 -24 c0 -5 -4 -10 -9
-10 -6 0 -13 5 -16 10 -3 6 1 10 9 10 9 0 16 -4 16 -10z m4700 -49 c0 -6 -4
-13 -10 -16 -5 -3 -10 1 -10 9 0 9 5 16 10 16 6 0 10 -4 10 -9z m-5003 -86
c32 -30 53 -54 48 -55 -14 0 -165 120 -165 132 0 16 59 -22 117 -77z m4435 14
c-18 -16 -41 -29 -51 -29 -13 0 -18 -7 -18 -24 0 -14 -11 -39 -24 -58 -23 -33
-185 -225 -222 -263 -20 -20 -20 -20 -14 3 3 12 2 22 -3 22 -11 0 -120 -136
-120 -149 0 -21 19 -11 49 26 17 21 31 34 31 29 0 -12 -84 -129 -105 -146 -9
-7 -21 -22 -26 -32 -20 -38 18 -18 76 40 69 68 57 42 -36 -84 -38 -50 -74
-104 -80 -118 -7 -14 -18 -26 -24 -26 -7 0 -12 -6 -11 -12 1 -17 -37 -97 -47
-98 -4 0 -5 26 -1 58 l5 57 -35 -39 c-19 -21 -43 -61 -52 -90 -15 -44 -38 -71
-159 -192 -78 -78 -145 -152 -148 -165 -7 -24 -66 -94 -73 -86 -10 10 95 194
174 304 95 132 181 237 189 229 3 -3 -5 -21 -17 -40 -33 -55 1 -35 48 27 158
212 163 219 124 183 -18 -16 -34 -27 -37 -24 -3 3 31 60 77 128 46 67 92 137
103 157 11 19 31 47 45 62 14 15 64 79 113 142 128 167 137 177 137 156 0 -16
6 -14 37 12 21 17 42 31 48 31 5 0 24 11 40 24 41 33 47 21 7 -15z m-138 13
c6 -10 -48 -91 -97 -147 -35 -38 -36 -39 -37 -15 0 15 8 30 21 38 11 7 27 30
36 50 15 37 50 82 64 82 4 0 10 -4 13 -8z m838 -74 c-17 -18 -34 -29 -37 -26
-3 3 8 20 26 37 17 18 34 29 37 26 3 -3 -8 -20 -26 -37z m-625 -55 c-9 -9 -20
-13 -24 -9 -4 4 1 14 11 22 25 18 35 8 13 -13z m33 -96 c-43 -72 -129 -168
-130 -145 0 10 20 40 44 67 24 27 58 70 76 96 43 63 51 49 10 -18z m-400 35
c0 -5 -13 -18 -30 -30 -33 -25 -38 -19 -14 16 15 21 44 31 44 14z m614 -21 c3
-4 -3 -16 -14 -26 -16 -14 -23 -16 -32 -7 -9 9 -9 12 1 12 8 0 11 6 7 15 -6
16 28 22 38 6z m87 -9 c-12 -23 -51 -58 -51 -45 0 11 45 63 55 63 3 0 1 -8 -4
-18z m-421 -102 c0 -5 -7 -10 -16 -10 -8 0 -12 5 -9 10 3 6 10 10 16 10 5 0 9
-4 9 -10z m213 -50 c-26 -45 -79 -94 -87 -81 -7 11 79 111 96 111 5 0 1 -14
-9 -30z m-323 -94 c0 -2 -7 -9 -15 -16 -12 -10 -15 -10 -15 4 0 9 7 16 15 16
8 0 15 -2 15 -4z m201 -43 c-10 -17 -10 -16 -11 3 0 23 13 41 18 25 2 -6 -1
-18 -7 -28z m-127 -28 c-9 -14 -19 -23 -22 -20 -5 4 26 45 35 45 2 0 -4 -11
-13 -25z m-84 -14 c0 -12 -20 -25 -27 -18 -7 7 6 27 18 27 5 0 9 -4 9 -9z
m175 -11 c-10 -11 -22 -20 -27 -20 -5 0 -4 9 2 20 6 11 18 20 27 20 14 0 14
-2 -2 -20z m-649 -28 c-18 -16 -18 -16 -6 6 6 13 14 21 18 18 3 -4 -2 -14 -12
-24z m355 0 c-11 -16 -28 -35 -38 -43 -17 -13 -17 -13 -3 6 20 28 53 65 57 65
3 0 -5 -13 -16 -28z m65 -29 c4 -15 2 -34 -5 -45 -10 -16 -9 -23 3 -37 23 -26
20 -44 -14 -76 -31 -30 -40 -24 -15 9 8 10 12 23 9 27 -3 5 2 9 10 9 9 0 16 5
16 10 0 18 -45 10 -58 -10 -10 -17 -52 -29 -52 -15 0 2 18 32 40 66 22 34 40
68 40 76 0 23 19 14 26 -14z m94 11 c0 -11 -6 -15 -20 -11 -15 4 -20 0 -20
-14 0 -21 -15 -26 -25 -8 -9 14 24 49 47 49 10 0 18 -7 18 -16z m-568 -56 c-7
-7 -12 -8 -12 -2 0 14 12 26 19 19 2 -3 -1 -11 -7 -17z m582 -48 c-17 -27 -44
-48 -44 -33 0 7 51 63 57 63 2 0 -4 -13 -13 -30z m-352 -17 c-28 -39 -92 -99
-92 -87 0 6 9 19 20 29 11 10 20 28 20 40 0 28 18 45 48 45 l23 0 -19 -27z
m-192 -2 c0 -5 -7 -14 -15 -21 -12 -10 -15 -10 -15 2 0 8 3 18 7 21 9 10 23 9
23 -2z m196 -136 c-18 -28 -36 -25 -36 5 0 13 5 17 14 14 8 -3 17 0 21 6 4 6
9 9 12 6 3 -3 -2 -17 -11 -31z m528 -17 c-17 -30 -148 -188 -156 -188 -10 0
-10 16 1 38 5 9 17 34 27 56 39 79 49 96 59 92 6 -2 19 0 30 5 31 12 47 11 39
-3z m-549 -48 c10 -16 -5 -50 -21 -50 -8 0 -14 -6 -14 -12 0 -7 -17 -21 -36
-31 -33 -16 -36 -16 -30 -2 3 9 6 21 6 25 0 5 14 25 31 45 31 35 53 44 64 25z
m-457 -96 c-23 -30 -52 -69 -63 -86 -11 -17 -38 -50 -60 -73 -22 -24 -48 -57
-57 -74 -20 -36 -38 -41 -38 -10 0 27 38 89 54 89 6 0 16 14 21 32 6 19 22 38
40 48 17 9 40 34 52 56 27 47 85 102 91 85 2 -6 -16 -37 -40 -67z m212 13 c0
-2 -10 -12 -21 -23 -22 -19 -22 -19 -8 4 12 19 29 30 29 19z m-420 -45 c0 -4
-16 -23 -35 -42 -41 -39 -47 -26 -9 19 25 30 44 40 44 23z m-100 -111 c0 -12
-41 -63 -47 -57 -5 5 35 66 43 66 2 0 4 -4 4 -9z m1066 -26 c-16 -24 -219
-271 -239 -290 -37 -36 154 228 201 278 41 42 62 49 38 12z m-566 -45 c-6 -12
-14 -19 -17 -17 -2 3 1 15 7 27 6 12 14 19 17 17 2 -3 -1 -15 -7 -27z m-30
-56 c0 -9 -5 -14 -12 -12 -18 6 -21 28 -4 28 9 0 16 -7 16 -16z m-1156 -91 c3
-7 2 -13 -1 -13 -10 0 -43 32 -43 42 0 11 38 -14 44 -29z m53 -59 c-9 -9 -28
6 -21 18 4 6 10 6 17 -1 6 -6 8 -13 4 -17z m1121 -844 c-7 -11 -16 -20 -21
-20 -4 0 -3 9 3 20 6 11 15 20 20 20 6 0 5 -9 -2 -20z m43 -63 c-8 -8 -11 -7
-11 4 0 20 13 34 18 19 3 -7 -1 -17 -7 -23z m-1445 -344 c-22 -44 -56 -86 -56
-69 0 12 42 90 58 109 25 29 25 12 -2 -40z m74 -8 c0 -21 -43 -62 -48 -47 -5
15 24 62 38 62 6 0 10 -7 10 -15z m15 -132 c-23 -40 -35 -70 -33 -91 2 -33
-16 -62 -40 -62 -9 0 -26 -10 -39 -22 -37 -34 -27 -8 32 86 62 99 106 158 112
153 2 -3 -12 -31 -32 -64z m35 -43 c-25 -35 -46 -41 -29 -7 18 34 43 60 47 48
2 -6 -6 -24 -18 -41z m-387 -87 c-28 -43 -60 -94 -72 -114 -38 -64 -57 -68
-22 -4 44 79 133 207 139 200 3 -2 -18 -39 -45 -82z m213 49 c-18 -35 -46 -60
-46 -42 0 16 39 70 51 70 5 0 3 -13 -5 -28z m-113 -119 c-15 -40 -122 -187
-130 -179 -4 4 127 196 133 196 2 0 0 -8 -3 -17z m107 -47 c0 -8 -4 -18 -10
-21 -5 -3 -11 -21 -11 -38 -1 -18 -3 -24 -6 -14 -5 19 -33 24 -33 5 0 -6 -3
-8 -6 -5 -8 8 45 87 57 87 5 0 9 -6 9 -14z m-220 -15 c0 -13 -29 -35 -37 -28
-7 8 15 37 28 37 5 0 9 -4 9 -9z m-99 -154 c-25 -39 -27 -30 -4 18 10 20 19
32 21 26 2 -6 -6 -26 -17 -44z m259 45 c0 -19 -76 -96 -107 -108 -18 -8 -33
-21 -33 -29 0 -20 10 -19 26 2 7 10 15 15 18 12 8 -8 -17 -40 -34 -42 -8 -2
-21 -6 -28 -11 -28 -17 -24 6 12 59 20 30 42 55 50 55 7 0 26 16 40 35 25 32
56 47 56 27z m195 -19 c-33 -51 -102 -138 -126 -158 l-23 -20 18 30 c38 61
132 175 144 175 2 0 -4 -12 -13 -27z m-186 -55 c-23 -44 -62 -98 -66 -94 -3 3
12 30 32 60 37 57 56 75 34 34z m-165 -15 c-33 -50 -46 -84 -40 -100 4 -11 -7
-27 -34 -50 -22 -19 -40 -41 -40 -49 0 -8 -4 -14 -10 -14 -5 0 -9 -3 -9 -7 4
-27 -3 -45 -16 -40 -8 4 -22 -4 -34 -19 -11 -13 -25 -23 -33 -22 -8 2 -14 -8
-16 -27 -4 -30 -37 -75 -55 -75 -14 0 2 52 22 75 10 11 21 28 25 39 4 11 12
16 21 12 10 -4 15 1 15 14 0 11 8 24 19 29 10 6 51 59 91 118 74 109 99 143
108 143 2 0 -4 -12 -14 -27z m1228 -15 c-9 -9 -12 -7 -12 12 0 19 3 21 12 12
9 -9 9 -15 0 -24z m-1401 -45 c-40 -79 -116 -178 -135 -178 -11 0 -21 -6 -23
-12 -3 -7 3 -13 12 -13 13 0 14 -4 4 -22 -21 -42 -41 -59 -55 -47 -8 7 -14 7
-19 -2 -4 -6 -3 -14 3 -18 5 -3 11 -15 13 -26 3 -14 27 12 95 105 50 69 104
145 121 170 30 44 85 101 68 70 -5 -8 -51 -78 -104 -154 -102 -148 -175 -236
-195 -236 -7 0 -32 -22 -55 -50 -23 -27 -47 -49 -52 -47 -13 2 -26 -19 -33
-53 -3 -14 -12 -34 -21 -45 -16 -19 -16 -18 -10 15 3 19 36 89 74 155 73 129
103 200 57 133 -30 -42 -43 -50 -25 -15 18 33 150 227 156 227 2 0 1 -4 -2
-10 -3 -5 -1 -10 4 -10 6 0 11 9 11 19 0 26 18 37 26 17 3 -9 -1 -28 -11 -42
-9 -14 -15 -33 -13 -42 2 -11 24 15 61 72 58 89 86 111 48 39z m160 -195 c-28
-46 -51 -96 -51 -110 0 -15 -4 -30 -10 -33 -5 -3 -10 -1 -10 6 0 7 -13 0 -30
-16 -16 -16 -30 -26 -30 -22 0 22 168 272 177 263 3 -3 -18 -42 -46 -88z
m1530 -2 c95 -83 306 -298 360 -366 59 -74 75 -110 23 -50 -92 104 -219 233
-314 317 -99 88 -178 173 -162 173 5 0 47 -33 93 -74z m-1719 -141 c0 -5 -5
-11 -11 -13 -6 -2 -11 4 -11 13 0 9 5 15 11 13 6 -2 11 -8 11 -13z m-182 -58
c0 -2 -10 -12 -21 -23 -22 -19 -22 -19 -10 4 10 18 31 31 31 19z m180 -76
c-16 -31 -32 -36 -18 -7 6 14 15 26 20 26 5 0 4 -9 -2 -19z m-234 -121 c-34
-51 -42 -52 -16 0 11 22 18 40 15 40 -4 0 -3 5 1 11 4 7 9 8 17 0 7 -7 2 -22
-17 -51z m-206 -109 c0 -5 -7 -11 -15 -15 -9 -3 -15 0 -15 9 0 8 7 15 15 15 8
0 15 -4 15 -9z m-50 -26 c0 -8 -9 -19 -20 -25 -14 -8 -20 -21 -20 -46 0 -36
-19 -81 -51 -123 -25 -31 -24 -21 2 29 29 56 18 61 -20 8 -43 -62 -124 -147
-116 -123 10 33 121 207 160 253 37 42 65 54 65 27z m110 -84 c0 -6 -4 -13
-10 -16 -5 -3 -10 1 -10 9 0 9 5 16 10 16 6 0 10 -4 10 -9z m25 -79 c-20 -38
-49 -84 -65 -103 l-30 -34 10 29 c6 16 19 41 30 56 11 16 20 33 20 39 0 6 4
11 9 11 5 0 13 10 17 23 8 27 23 47 36 47 5 0 -7 -31 -27 -68z m-364 -40 c-5
-9 -24 -30 -42 -47 -33 -31 -32 -27 8 38 23 36 53 45 34 9z m421 -34 c-7 -7
-12 -8 -12 -2 0 14 12 26 19 19 2 -3 -1 -11 -7 -17z m-262 -115 c-1 -15 -30
-46 -37 -40 -3 4 2 16 12 27 19 21 25 24 25 13z m64 -34 c-24 -27 -30 -15 -9
18 12 17 20 23 23 15 2 -7 -4 -22 -14 -33z m-121 -75 c-15 -23 -19 -25 -21
-10 -4 19 30 64 36 47 2 -5 -5 -22 -15 -37z m-224 -46 c-12 -23 -73 -125 -136
-226 -126 -201 -213 -357 -213 -384 0 -10 -6 -18 -13 -18 -7 0 -18 -14 -24
-31 -15 -39 -47 -37 -51 3 -4 33 82 173 127 206 22 16 33 34 37 63 5 29 13 43
28 49 32 12 41 28 55 93 8 36 20 62 32 70 10 6 19 20 19 30 0 9 12 23 26 29
14 7 34 28 44 47 25 48 80 124 86 118 3 -3 -4 -25 -17 -49z m-64 -8 c-23 -45
-45 -65 -45 -41 0 5 -3 16 -6 24 -3 10 8 24 33 41 21 14 39 26 40 26 2 0 -8
-22 -22 -50z m4084 -129 c7 -5 12 -14 9 -21 -2 -7 -10 -4 -22 9 -19 21 -12 28
13 12z m-3779 -30 c0 -7 -50 -75 -67 -91 -12 -11 11 47 29 73 19 26 38 36 38
18z m44 -26 c-4 -8 -10 -15 -15 -15 -4 0 -6 7 -3 15 4 8 10 15 15 15 4 0 6 -7
3 -15z m4521 -145 c3 -5 2 -10 -4 -10 -5 0 -13 5 -16 10 -3 6 -2 10 4 10 5 0
13 -4 16 -10z m-499 -37 c-7 -7 -26 7 -26 19 0 6 6 6 15 -2 9 -7 13 -15 11
-17z m-4617 -5 c-7 -13 -49 -81 -94 -153 -101 -162 -162 -278 -170 -329 -8
-46 -44 -86 -80 -86 -14 0 -25 2 -25 5 0 3 18 39 40 79 22 40 40 80 40 89 0
10 6 17 13 17 17 0 111 142 214 323 7 12 13 29 13 38 0 12 14 21 58 38 1 1 -3
-9 -9 -21z m446 -55 c-37 -64 -117 -182 -144 -212 -11 -13 -21 -30 -21 -38 0
-7 -4 -13 -8 -13 -5 0 -14 -10 -20 -22 -16 -35 -15 2 3 51 8 22 11 41 8 41 -3
0 5 11 18 24 35 35 49 54 49 65 0 6 12 17 28 25 20 12 23 15 9 16 -11 0 -17 6
-14 13 2 6 14 11 26 10 15 -2 29 10 53 46 41 62 50 58 13 -6z m-386 -55 c-8
-14 -14 -18 -17 -10 -4 13 17 46 25 38 3 -2 -1 -15 -8 -28z m-29 -47 c0 -5 -7
-14 -15 -21 -12 -10 -15 -10 -15 2 0 8 3 18 7 21 9 10 23 9 23 -2z m-190 -160
c0 -12 -20 -25 -27 -18 -7 7 6 27 18 27 5 0 9 -4 9 -9z m5326 -53 c27 -17 44
-33 37 -35 -13 -5 -108 41 -118 57 -13 21 33 9 81 -22z m-4946 -20 c-1 -15
-50 -77 -50 -63 0 12 38 75 45 75 3 0 5 -6 5 -12z m-554 -212 c3 -8 -2 -29
-12 -48 -9 -18 -19 -28 -21 -21 -2 7 0 21 6 32 19 35 12 36 -25 0 -26 -24 -33
-28 -25 -12 6 12 11 31 11 42 0 17 6 21 30 21 17 0 33 -6 36 -14z m-97 -168
c-8 -14 -14 -18 -17 -10 -4 13 17 46 25 38 3 -2 -1 -15 -8 -28z m-43 -74 c-8
-29 -57 -107 -63 -100 -3 2 6 22 19 44 24 43 19 65 -9 40 -10 -8 -25 -18 -34
-21 -9 -3 -19 -19 -22 -35 -3 -16 -14 -32 -23 -36 -14 -5 -16 -1 -11 30 7 41
32 74 56 74 9 0 25 7 35 15 11 8 28 15 39 15 16 0 18 -5 13 -26z m724 -133 c0
-6 -4 -13 -10 -16 -5 -3 -10 1 -10 9 0 9 5 16 10 16 6 0 10 -4 10 -9z m5 -51
c3 -5 -3 -10 -14 -10 -12 0 -21 5 -21 10 0 6 6 10 14 10 8 0 18 -4 21 -10z
m-1056 -306 c-14 -18 -24 -11 -15 11 3 9 11 13 16 10 8 -5 7 -11 -1 -21z m966
-64 c-3 -5 -11 -10 -16 -10 -6 0 -7 5 -4 10 3 6 11 10 16 10 6 0 7 -4 4 -10z
m-115 -90 c40 0 38 -18 -5 -72 -19 -24 -60 -81 -91 -128 -61 -91 -140 -180
-161 -180 -21 0 -15 15 27 71 22 30 40 57 40 61 0 11 -18 10 -25 -2 -3 -5 -15
-15 -25 -20 -16 -9 -19 -8 -13 7 8 25 84 103 100 103 15 0 17 -16 3 -25 -5 -3
-10 -11 -10 -17 0 -7 6 -6 15 2 8 7 15 25 15 41 0 19 -5 29 -15 29 -20 0 -19
24 1 41 9 8 27 30 39 50 13 20 31 44 41 53 16 16 18 16 26 2 5 -9 22 -16 38
-16z m-708 -22 c-7 -7 -12 -8 -12 -2 0 14 12 26 19 19 2 -3 -1 -11 -7 -17z
m389 4 c-12 -23 -41 -48 -41 -35 0 5 7 19 16 31 19 27 39 30 25 4z m-156 -21
c6 -10 -21 -41 -35 -41 -17 0 -20 19 -4 34 18 18 30 20 39 7z m-25 -80 c0 -26
-16 -35 -24 -15 -10 25 -7 34 9 34 8 0 15 -9 15 -19z m60 -41 c0 -12 -28 -25
-36 -17 -9 9 6 27 22 27 8 0 14 -5 14 -10z m28 -42 c-3 -7 -18 -14 -34 -16
-28 -2 -28 -2 -10 13 24 18 49 20 44 3z m36 -54 c14 -13 14 -19 1 -43 -23 -46
-65 -52 -65 -10 0 16 -5 19 -20 14 -22 -7 -23 -5 -14 19 3 9 17 16 29 16 13 0
27 5 30 10 9 14 21 12 39 -6z m94 -6 c16 -16 15 -28 -2 -28 -17 0 -38 24 -29
33 9 10 17 9 31 -5z m-658 -73 c0 -8 -7 -15 -15 -15 -9 0 -12 6 -9 15 4 8 10
15 15 15 5 0 9 -7 9 -15z"/>
<path d="M5206 7851 c-4 -7 -5 -15 -2 -18 9 -9 19 4 14 18 -4 11 -6 11 -12 0z"/>
<path d="M4649 7063 l-24 -28 28 24 c25 23 32 31 24 31 -2 0 -14 -12 -28 -27z"/>
<path d="M2657 4223 c-10 -9 -9 -23 2 -23 5 0 11 7 15 15 5 15 -5 20 -17 8z"/>
<path d="M1876 3394 c-10 -25 1 -29 14 -5 6 12 7 21 1 21 -5 0 -12 -7 -15 -16z"/>
<path d="M1601 3026 c-7 -8 -8 -17 -3 -20 6 -3 13 1 16 10 9 23 2 28 -13 10z"/>
<path d="M707 1708 c-42 -57 -45 -65 -17 -47 21 14 58 79 46 79 -3 0 -16 -15
-29 -32z"/>
<path d="M6111 9179 c-12 -12 -20 -24 -16 -27 3 -3 15 4 27 16 12 12 20 24 17
27 -3 2 -16 -5 -28 -16z"/>
<path d="M6240 9101 c-16 -30 -12 -36 10 -16 21 19 26 35 10 35 -5 0 -14 -9
-20 -19z"/>
<path d="M7297 9052 c-18 -46 -39 -151 -32 -163 3 -4 1 -16 -4 -26 -12 -22
-71 -221 -71 -237 1 -18 69 120 79 161 5 21 18 60 28 87 13 36 15 50 6 53 -9
3 -9 13 1 41 34 95 27 169 -7 84z"/>
<path d="M6570 8960 c-6 -12 -9 -24 -7 -27 3 -2 11 5 17 17 6 12 9 24 7 27 -3
2 -11 -5 -17 -17z"/>
<path d="M6520 8850 c0 -11 7 -20 15 -20 8 0 15 9 15 20 0 11 -7 20 -15 20 -8
0 -15 -9 -15 -20z"/>
<path d="M6687 8843 c-10 -9 -9 -23 2 -23 5 0 11 7 15 15 5 15 -5 20 -17 8z"/>
<path d="M5538 8600 c-21 -13 -106 -126 -205 -275 -97 -145 -129 -205 -110
-205 20 0 41 20 77 75 49 73 168 222 196 244 13 10 24 23 24 28 0 5 19 36 42
69 23 32 32 50 20 40 -23 -20 -44 -14 -24 6 24 24 11 36 -20 18z"/>
<path d="M7093 8449 c-5 -8 -16 -25 -23 -39 l-12 -25 27 26 c15 15 26 32 23
39 -3 9 -6 9 -15 -1z"/>
<path d="M5081 8146 c-81 -81 -206 -239 -247 -310 -10 -18 -43 -64 -71 -102
-65 -85 -170 -291 -157 -304 6 -6 18 -4 32 6 27 19 134 157 179 233 20 33 41
56 51 56 11 0 18 11 23 35 3 19 13 49 21 65 18 34 134 209 167 252 41 53 92
136 89 145 -2 5 -41 -29 -87 -76z"/>
<path d="M50 7976 c0 -7 8 -20 17 -27 15 -12 16 -12 10 4 -4 10 -7 23 -7 28 0
5 -4 9 -10 9 -5 0 -10 -6 -10 -14z"/>
<path d="M100 7912 c0 -5 7 -16 16 -23 14 -12 16 -11 13 5 -4 20 -29 35 -29
18z"/>
<path d="M165 7879 c-10 -15 3 -25 16 -12 7 7 7 13 1 17 -6 3 -14 1 -17 -5z"/>
<path d="M4938 7823 c-23 -28 -30 -43 -19 -43 12 0 46 48 39 55 -3 3 -12 -3
-20 -12z"/>
<path d="M290 7736 c0 -9 5 -16 10 -16 6 0 10 4 10 9 0 6 -4 13 -10 16 -5 3
-10 -1 -10 -9z"/>
<path d="M330 7716 c0 -9 5 -16 10 -16 6 0 10 4 10 9 0 6 -4 13 -10 16 -5 3
-10 -1 -10 -9z"/>
<path d="M250 7691 c-18 -34 -11 -46 35 -69 71 -34 86 -29 43 16 -19 20 -38
45 -41 55 -8 23 -24 22 -37 -2z"/>
<path d="M5780 7325 c-20 -24 -6 -28 15 -5 10 11 13 20 8 20 -6 0 -16 -7 -23
-15z"/>
<path d="M5782 7271 c-21 -23 -47 -56 -57 -74 l-18 -32 22 20 c39 34 104 115
97 122 -3 3 -23 -13 -44 -36z"/>
<path d="M1445 7165 c43 -39 94 -70 102 -61 6 6 -71 62 -112 82 -27 14 -27 12
10 -21z"/>
<path d="M5635 7093 l-18 -28 27 24 c28 26 31 31 17 31 -5 0 -17 -12 -26 -27z"/>
<path d="M4275 7024 c-11 -17 -13 -25 -4 -22 16 5 44 48 31 48 -5 0 -17 -12
-27 -26z"/>
<path d="M1772 6919 c2 -7 10 -15 17 -17 8 -3 12 1 9 9 -2 7 -10 15 -17 17 -8
3 -12 -1 -9 -9z"/>
<path d="M1990 6731 c0 -6 5 -13 10 -16 6 -3 10 1 10 9 0 9 -4 16 -10 16 -5 0
-10 -4 -10 -9z"/>
<path d="M4781 6049 c-23 -28 -39 -54 -37 -57 8 -7 30 14 61 58 42 60 23 59
-24 -1z"/>
<path d="M3085 5740 c10 -11 20 -20 23 -20 3 0 -3 9 -13 20 -10 11 -20 20 -23
20 -3 0 3 -9 13 -20z"/>
<path d="M2122 5080 c7 -11 17 -20 22 -20 5 0 1 9 -9 20 -10 11 -20 20 -22 20
-2 0 2 -9 9 -20z"/>
<path d="M4180 5065 c-21 -21 -28 -35 -19 -35 22 1 52 28 56 50 4 26 3 26 -37
-15z"/>
<path d="M4330 4671 c0 -13 29 -35 37 -28 7 8 -15 37 -28 37 -5 0 -9 -4 -9 -9z"/>
<path d="M4436 4582 c5 -4 21 -18 37 -31 15 -14 27 -22 27 -18 0 10 -53 57
-64 57 -6 0 -6 -3 0 -8z"/>
<path d="M4610 4440 c0 -12 92 -82 99 -74 7 7 -74 84 -89 84 -5 0 -10 -4 -10
-10z"/>
<path d="M2317 4389 c-47 -74 -90 -160 -83 -167 9 -8 31 24 82 121 52 100 53
126 1 46z"/>
<path d="M4806 4265 c4 -8 10 -12 15 -9 11 6 2 24 -11 24 -5 0 -7 -7 -4 -15z"/>
<path d="M4911 4184 c40 -42 141 -123 184 -148 18 -11 4 7 -35 44 -111 106
-232 190 -149 104z"/>
<path d="M5210 3942 c0 -5 7 -15 15 -22 8 -7 15 -8 15 -2 0 5 -7 15 -15 22 -8
7 -15 8 -15 2z"/>
<path d="M5295 3870 c10 -11 20 -20 23 -20 3 0 -3 9 -13 20 -10 11 -20 20 -23
20 -3 0 3 -9 13 -20z"/>
<path d="M1970 3784 c0 -8 5 -12 10 -9 6 3 10 10 10 16 0 5 -4 9 -10 9 -5 0
-10 -7 -10 -16z"/>
<path d="M5465 3721 c56 -59 174 -156 180 -149 6 5 -185 177 -212 191 -10 5 5
-14 32 -42z"/>
<path d="M1737 3573 c-37 -59 -49 -83 -45 -94 2 -5 20 20 41 56 41 72 44 102
4 38z"/>
<path d="M5845 3384 c55 -52 109 -99 120 -105 11 -5 -29 38 -89 96 -60 58
-114 105 -120 105 -6 -1 34 -44 89 -96z"/>
<path d="M1640 3400 c-12 -23 -19 -44 -16 -47 2 -3 14 14 26 37 12 23 19 44
16 47 -2 3 -14 -14 -26 -37z"/>
<path d="M6012 3238 c3 -7 13 -15 24 -17 16 -3 17 -1 5 13 -16 19 -34 21 -29
4z"/>
<path d="M6162 3108 c3 -7 58 -57 124 -111 150 -122 174 -140 174 -130 0 5
-39 41 -87 81 -49 39 -112 94 -142 121 -54 50 -77 63 -69 39z"/>
<path d="M2644 2966 c-10 -8 -15 -18 -11 -22 4 -4 15 0 24 9 22 21 12 31 -13
13z"/>
<path d="M2595 2889 c-14 -17 -23 -34 -20 -38 7 -6 27 17 46 52 15 26 4 20
-26 -14z"/>
<path d="M4643 2853 c9 -9 20 -13 24 -9 4 4 1 11 -7 16 -25 16 -35 11 -17 -7z"/>
<path d="M2489 2758 c-37 -50 -99 -175 -99 -198 1 -24 51 41 103 133 26 46 47
89 47 95 0 24 -21 11 -51 -30z"/>
<path d="M6670 2691 c0 -11 110 -111 122 -111 18 0 6 20 -36 58 -48 44 -86 68
-86 53z"/>
<path d="M4590 2676 c0 -9 5 -16 10 -16 6 0 10 4 10 9 0 6 -4 13 -10 16 -5 3
-10 -1 -10 -9z"/>
<path d="M6865 2380 c27 -89 47 -130 66 -130 46 0 25 62 -41 125 -32 30 -32
30 -25 5z"/>
<path d="M2218 2326 c-30 -47 -35 -68 -15 -60 11 4 57 84 57 99 0 16 -19 -1
-42 -39z"/>
<path d="M6723 2346 c14 -21 16 -31 7 -41 -8 -10 -8 -19 -1 -34 6 -11 11 -33
11 -50 0 -16 8 -37 17 -46 16 -16 18 -16 35 5 18 23 19 23 58 5 22 -10 43 -15
47 -12 3 4 -12 26 -33 50 -21 24 -51 59 -65 78 -15 19 -42 43 -60 54 l-34 19
18 -28z m138 -139 c-1 -12 -15 -9 -19 4 -3 6 1 10 8 8 6 -3 11 -8 11 -12z"/>
<path d="M5007 2289 c18 -18 35 -30 38 -27 3 3 -11 18 -32 33 l-38 28 32 -34z"/>
<path d="M5205 2230 c10 -11 20 -20 23 -20 3 0 -3 9 -13 20 -10 11 -20 20 -23
20 -3 0 3 -9 13 -20z"/>
<path d="M2129 2198 c-8 -7 -22 -22 -29 -32 -14 -18 -14 -18 5 -9 25 14 61 53
48 53 -5 0 -16 -6 -24 -12z"/>
<path d="M6950 2153 c0 -13 29 -38 35 -31 3 3 -4 13 -15 23 -11 10 -20 13 -20
8z"/>
<path d="M2063 2109 c-16 -16 -17 -49 -3 -49 13 0 23 24 18 45 -2 13 -5 14
-15 4z"/>
<path d="M6410 2095 c0 -16 34 -38 44 -28 7 7 -23 43 -36 43 -4 0 -8 -7 -8
-15z"/>
<path d="M6560 2070 c0 -5 14 -16 30 -25 17 -9 30 -20 30 -25 0 -6 7 -10 15
-10 25 0 17 20 -15 38 -16 9 -30 20 -30 25 0 4 -7 7 -15 7 -8 0 -15 -4 -15
-10z"/>
<path d="M7140 1989 c0 -6 9 -24 20 -39 11 -15 24 -38 29 -51 l10 -24 0 25 c1
14 -10 42 -24 63 -27 38 -35 45 -35 26z"/>
<path d="M7110 1917 c0 -29 29 -129 41 -141 15 -17 10 28 -11 98 -22 69 -30
81 -30 43z"/>
<path d="M6760 1872 c0 -5 7 -15 15 -22 8 -7 15 -8 15 -2 0 5 -7 15 -15 22 -8
7 -15 8 -15 2z"/>
<path d="M6970 1841 c0 -6 5 -13 10 -16 6 -3 10 1 10 9 0 9 -4 16 -10 16 -5 0
-10 -4 -10 -9z"/>
<path d="M6364 1775 c11 -8 25 -15 30 -15 6 0 2 7 -8 15 -11 8 -25 15 -30 15
-6 0 -2 -7 8 -15z"/>
<path d="M6762 1699 c2 -7 10 -15 17 -17 8 -3 12 1 9 9 -2 7 -10 15 -17 17 -8
3 -12 -1 -9 -9z"/>
<path d="M6993 1660 c14 -24 34 -51 46 -58 34 -23 23 0 -26 53 l-45 50 25 -45z"/>
<path d="M6890 1671 c0 -6 5 -13 10 -16 6 -3 10 1 10 9 0 9 -4 16 -10 16 -5 0
-10 -4 -10 -9z"/>
<path d="M6609 1579 c13 -11 26 -17 29 -14 7 6 -29 34 -43 34 -5 0 1 -9 14
-20z"/>
<path d="M7210 1592 c0 -12 19 -26 26 -19 2 2 -2 10 -11 17 -9 8 -15 8 -15 2z"/>
<path d="M1565 1558 l-16 -33 21 24 c11 13 20 27 20 32 0 18 -10 8 -25 -23z"/>
<path d="M7318 1523 c21 -27 45 -59 52 -73 8 -15 15 -20 18 -12 6 18 -46 102
-64 102 -8 0 -17 7 -20 15 -4 8 -11 15 -16 15 -5 0 8 -21 30 -47z"/>
<path d="M7365 1560 c3 -5 8 -10 11 -10 2 0 4 5 4 10 0 6 -5 10 -11 10 -5 0
-7 -4 -4 -10z"/>
<path d="M6550 1510 c0 -8 51 -40 65 -40 16 0 1 22 -25 35 -34 18 -40 18 -40
5z"/>
<path d="M7126 1495 c4 -8 10 -12 15 -9 11 6 2 24 -11 24 -5 0 -7 -7 -4 -15z"/>
<path d="M7260 1476 c0 -9 5 -16 10 -16 6 0 10 4 10 9 0 6 -4 13 -10 16 -5 3
-10 -1 -10 -9z"/>
<path d="M7079 1452 c12 -23 41 -48 41 -35 0 5 -7 19 -16 31 -19 27 -39 30
-25 4z"/>
<path d="M6650 1456 c0 -8 135 -86 149 -86 11 0 11 3 0 16 -20 25 -149 85
-149 70z"/>
<path d="M6930 1420 c14 -25 97 -83 113 -77 18 6 -77 97 -102 97 -18 0 -20 -3
-11 -20z"/>
<path d="M297 1343 c-4 -3 -7 -11 -7 -17 0 -6 5 -5 12 2 6 6 9 14 7 17 -3 3
-9 2 -12 -2z"/>
<path d="M1490 1315 c0 -8 2 -15 4 -15 2 0 6 7 10 15 3 8 1 15 -4 15 -6 0 -10
-7 -10 -15z"/>
<path d="M7000 1307 c0 -19 21 -37 42 -37 24 0 23 27 -1 40 -26 14 -41 13 -41
-3z"/>
<path d="M6780 1297 c0 -8 7 -21 16 -28 14 -11 15 -10 12 11 -3 26 -28 41 -28
17z"/>
<path d="M6953 1283 c-16 -6 -17 -23 -1 -23 7 0 29 -12 50 -26 47 -33 57 -27
24 14 -26 30 -51 42 -73 35z"/>
<path d="M1346 1237 c-30 -40 -35 -64 -5 -27 24 31 41 60 35 60 -3 0 -16 -15
-30 -33z"/>
<path d="M187 1174 c-4 -4 -7 -17 -7 -28 1 -19 1 -20 11 -3 11 19 8 43 -4 31z"/>
<path d="M302 1168 c-6 -6 -12 -19 -12 -27 0 -13 2 -13 16 1 9 9 15 21 13 27
-3 9 -8 8 -17 -1z"/>
<path d="M7410 1035 c0 -8 44 -45 54 -45 5 0 -1 11 -14 25 -21 23 -40 32 -40
20z"/>
<path d="M1200 924 c0 -14 4 -23 10 -19 6 3 10 15 10 26 0 10 -4 19 -10 19 -5
0 -10 -12 -10 -26z"/>
<path d="M946 404 c-4 -10 -1 -14 6 -12 15 5 23 28 10 28 -5 0 -13 -7 -16 -16z"/>
<path d="M446 281 c-4 -7 -5 -15 -2 -18 9 -9 19 4 14 18 -4 11 -6 11 -12 0z"/>
<path d="M195 129 c-4 -6 -5 -13 -2 -16 7 -7 27 6 27 18 0 12 -17 12 -25 -2z"/>
</g>
</svg>
